HIERARCHY
ROOT base
{
	OFFSET 0.0 0.0 0.0
	CHANNELS 6 Xposition Yposition Zposition Zrotation Yrotation Xrotation
	JOINT root
	{
		OFFSET 0 0 0
		CHANNELS 6 Xposition Yposition Zposition Zrotation Yrotation Xrotation
		JOINT chest
		{
			OFFSET 0 4.72302 0
			CHANNELS 3 Zrotation Yrotation Xrotation
			JOINT neck
			{
				OFFSET 0 4.47788 0
				CHANNELS 3 Zrotation Yrotation Xrotation
				End Site
				{
					OFFSET 0.0 0.0 0.0
				}
			}
			JOINT right_shoulder
			{
				OFFSET -0.481 4.87 3.6622
				CHANNELS 3 Zrotation Yrotation Xrotation
				JOINT right_elbow
				{
					OFFSET 0 -5.49576 0
					CHANNELS 3 Zrotation Yrotation Xrotation
					JOINT right_wrist
					{
						OFFSET 0 -5.17894 0
						CHANNELS 3 Zrotation Yrotation Xrotation
						End Site
						{
							OFFSET 0.0 0.0 0.0
						}
					}
				}
			}
			JOINT left_shoulder
			{
				OFFSET -0.481 4.87 -3.6622
				CHANNELS 3 Zrotation Yrotation Xrotation
				JOINT left_elbow
				{
					OFFSET 0 -5.49576 0
					CHANNELS 3 Zrotation Yrotation Xrotation
					JOINT left_wrist
					{
						OFFSET 0 -5.17894 0
						CHANNELS 3 Zrotation Yrotation Xrotation
						End Site
						{
							OFFSET 0.0 0.0 0.0
						}
					}
				}
			}
		}
		JOINT right_hip
		{
			OFFSET 0 0 1.69774
			CHANNELS 3 Zrotation Yrotation Xrotation
			JOINT right_knee
			{
				OFFSET 0 -8.43092 0
				CHANNELS 3 Zrotation Yrotation Xrotation
				JOINT right_ankle
				{
					OFFSET 0 -8.1974 0
					CHANNELS 3 Zrotation Yrotation Xrotation
					End Site
					{
						OFFSET 0.0 0.0 0.0
					}
				}
			}
		}
		JOINT left_hip
		{
			OFFSET 0 0 -1.69774
			CHANNELS 3 Zrotation Yrotation Xrotation
			JOINT left_knee
			{
				OFFSET 0 -8.43092 0
				CHANNELS 3 Zrotation Yrotation Xrotation
				JOINT left_ankle
				{
					OFFSET 0 -8.1974 0
					CHANNELS 3 Zrotation Yrotation Xrotation
					End Site
					{
						OFFSET 0.0 0.0 0.0
					}
				}
			}
		}
	}
	JOINT red_arrow
	{
		OFFSET 0 0 0
		CHANNELS 3 Zrotation Yrotation Xrotation
		End Site
		{
			OFFSET 0.0 0.0 0.0
		}
	}
	JOINT blue_arrow
	{
		OFFSET 0 0 0
		CHANNELS 3 Zrotation Yrotation Xrotation
		End Site
		{
			OFFSET 0.0 0.0 0.0
		}
	}
}
MOTION
Frames: 6
Frame Time: 0.0333333333333333
-18.1467187047005 0 3.4173516497016 0 -15.3930739282696 0 0 14.7160863637924 0 -26.2601034510758 12.2092598355087 -2.14230398440032 -24.8129825855874 -1.70487529697258 7.36840608338321 -3.10549317569614 -1.4632054871629 2.22126916791353 -9.77152216568411 -19.9270854380891 -12.4082008380416 -0.0129358763624816 0 0 0 0 0 -11.7023131722875 50.7937002298827 29.2997061863748 -1.03566127359788E-06 0 0 0 0 0 73.3100889608476 1.81248422645078 1.47481671321973 -63.1564301606009 0 0 13.6928386836629 6.72273287816115 -3.27166669116094 76.0471148677937 3.7215148451627 5.06193351269725 -61.7793615710888 0 0 0.970106944948192 0.547684213399375 -3.95125155726035 0 0 0 0 0 0
-18.0976233422756 0 3.50680163502693 0 -14.7878029923507 0 0 13.7670381784439 0 -22.2727231272436 10.6625599200907 0.365015522203 -18.5364064032225 -1.01537400101954 5.05308695103017 -2.16502677586964 -0.411093003584757 1.63990056038172 -5.45681297073775 -14.1588573535838 -8.62686265413212 -1.5929973307398E-05 0 0 0 0 0 -1.52941935515149 46.0591167772922 27.579702212179 -5.63761058505059E-05 0 0 0 0 0 75.685107635278 1.75167916717278 2.00839424965238 -73.8653744772372 0 0 19.3862865383441 7.73083618478412 -4.18319595504043 76.8775824410419 3.48466057743405 5.83866008666021 -71.0672372195797 0 0 10.0317645152763 1.72623669156056 -5.03380549174288 0 0 0 0 0 0
-18.092787694931 0 3.7635674893856 0 -14.1419767660317 0 0 13.1344154834747 0 -17.3319681715388 11.7293305039669 1.53822787030821 -10.269168141672 -0.803971920876806 2.92513032622446 -1.28558675379205 0.768099430835406 1.78725557630669 5.58916082973723 -8.03301865392408 -5.88730357308474 0.897200949489887 0 0 0 0 0 13.0603408452218 36.4115795918223 27.1790897404113 1.69743391677651 0 0 0 0 0 74.7570316226636 0.571235002065021 1.65293163200752 -80.6641516072571 0 0 22.1237980315035 7.04465415680226 -5.39691088080742 75.0831509247846 2.74942249947732 5.66779612977104 -75.9203598324406 0 0 14.8236549502136 1.58198377223231 -5.65976988365872 0 0 0 0 0 0
-18.2959847539663 0 4.19582448005676 0 -13.2766922311649 0 0 12.7210116267204 0 -11.754296012887 16.1137230239309 0.976826629226091 -2.83067953061076 -1.31510898106863 0.861516694559709 0.827168816660774 2.35046698392889 2.92154799061969 24.928892465521 2.59072696232009 -2.60061305809519 6.9887114573464 0 0 0 0 0 30.0433691509938 18.4390899789591 22.4753486263048 10.8892835088394 0 0 0 0 0 71.8569285123778 -1.96966750039313 0.876810538780263 -83.9696421466522 0 0 23.0682376316641 3.27934741679665 -6.36303116001806 72.6423455805305 1.46086706052861 5.125538392028 -77.1789861115555 0 0 15.6222658514642 -1.45526396986168 -5.35624540254679 0 0 0 0 0 0
-18.5453262552619 0 4.52424322366714 0 -12.2093056711686 0 0 12.4284406900406 0 -4.36938835692279 20.2261842005849 1.5557977448507 -1.16266878021487 -2.07145714113085 -1.35873006597762 5.28114143098844 2.37056539952742 4.73809415833624 55.9848487396527 15.549355840418 3.23004887570323 14.3922057888357 0 0 0 0 0 53.9513654129077 -7.76739801997062 13.514418418125 20.8963985675002 0 0 0 0 0 66.9230376916345 -4.52041104482968 -0.476013021420352 -85.7309976694368 0 0 23.1388474434362 0.0803050523484408 -6.86842271454412 68.7632644874805 0.40561445008355 4.55093706478192 -78.0151105489918 0 0 13.5771059573873 -6.05440970561346 -4.65666812254574 0 0 0 0 0 0
-18.3328752994537 0 4.5910141505301 0 -11.0882509917335 0 0 12.775879740715 0 6.93802691548066 21.1579084122446 4.67350866634166 -4.59758428965691 -1.99365718904687 -2.33876172053883 8.64273924746441 0.928740788327313 6.36694299604523 84.8194962691653 25.6751828219329 6.69168738334984 24.4316549630273 0 0 0 0 0 81.0313586095002 -30.1165783665648 2.83076918257535 39.0662641655068 0 0 0 0 0 53.436319425973 -4.57238111469823 -0.0171877076023257 -83.0110182664518 0 0 23.5540194528496 -2.6713906886742 -6.10752559411305 55.9556984119793 -0.646486392989341 3.65977172891983 -75.3122476000669 0 0 13.2619561289867 -7.32093169032446 -4.43757929333547 0 0 0 0 0 0
